<?xml version="1.0" standalone="no"?><!DOCTYPE svg PUBLIC "-//W3C//DTD SVG 1.1//EN" "http://www.w3.org/Graphics/SVG/1.1/DTD/svg11.dtd"><svg t="1744449483544" class="icon" viewBox="0 0 1024 1024" version="1.1" xmlns="http://www.w3.org/2000/svg" p-id="3203" xmlns:xlink="http://www.w3.org/1999/xlink" width="200" height="200"><path d="M21.376 465.6H133.76v112.448H21.376V465.6zM455.872 577.984h112.384v112.448H455.872V577.92zM793.024 690.432h-112.384v97.28h209.664V577.92h-97.28v112.448z" fill="#121316" fill-opacity=".6" p-id="3204"></path><path d="M568.256 465.6h112.384v112.448H568.32V465.6zM21.376 353.28H133.76v112.384H21.376V353.28z" fill="#B4B6BC" p-id="3205"></path><path d="M890.24 465.6h112.384v112.448H890.24V465.6z" fill="#121316" fill-opacity=".6" p-id="3206"></path><path d="M890.24 353.28h112.384v112.384H890.24V353.28z" fill="#B4B6BC" p-id="3207"></path><path d="M680.64 256v97.28h112.384v112.384h97.28V256h-209.664z" fill="#121316" fill-opacity=".6" p-id="3208"></path><path d="M343.36 465.6h112.448v112.448H343.36V465.6z" fill="#B4B6BC" p-id="3209"></path><path d="M231.04 353.28h112.384V256H133.76v209.664h97.28V353.28zM231.04 577.984H133.76v209.664h209.664v-97.28H230.976V578.048z" fill="#121316" fill-opacity=".6" p-id="3210"></path></svg>